<svg width="1670" height="616" viewBox="0 0 1670 616" fill="none" xmlns="http://www.w3.org/2000/svg">
<path d="M663.688 224.586V203.172H755.893V224.586H722.814V312.263H696.82V224.586H663.688ZM778.744 312.263H750.406L787.214 203.172H822.317L859.124 312.263H830.786L805.165 230.658H804.312L778.744 312.263ZM774.962 269.33H834.195V289.358H774.962V269.33ZM870.87 203.172H903.522L931.221 270.715H932.5L960.199 203.172H992.851V312.263H967.176V245.253H966.271L940.064 311.571H923.657L897.45 244.88H896.544V312.263H870.87V203.172ZM1032.89 312.263H1004.56L1041.36 203.172H1076.47L1113.27 312.263H1084.94L1059.32 230.658H1058.46L1032.89 312.263ZM1029.11 269.33H1088.35V289.358H1029.11V269.33ZM1125.02 312.263V203.172H1170.08C1178.25 203.172 1185.3 204.646 1191.23 207.593C1197.2 210.505 1201.8 214.696 1205.03 220.164C1208.26 225.598 1209.87 232.043 1209.87 239.5C1209.87 247.064 1208.22 253.492 1204.92 258.783C1201.62 264.039 1196.93 268.052 1190.86 270.821C1184.79 273.556 1177.59 274.923 1169.28 274.923H1140.79V254.149H1164.38C1168.36 254.149 1171.68 253.634 1174.35 252.604C1177.04 251.539 1179.09 249.941 1180.47 247.81C1181.86 245.644 1182.55 242.874 1182.55 239.5C1182.55 236.127 1181.86 233.339 1180.47 231.137C1179.09 228.9 1177.04 227.231 1174.35 226.13C1171.65 224.994 1168.33 224.426 1164.38 224.426H1151.39V312.263H1125.02ZM1186.44 262.405L1213.6 312.263H1184.84L1158.21 262.405H1186.44ZM1247.93 312.263H1219.6L1256.4 203.172H1291.51L1328.31 312.263H1299.98L1274.35 230.658H1273.5L1247.93 312.263ZM1244.15 269.33H1303.38V289.358H1244.15V269.33ZM726.223 384.878C725.868 380.972 724.288 377.936 721.482 375.77C718.712 373.568 714.753 372.467 709.604 372.467C706.195 372.467 703.354 372.911 701.081 373.799C698.808 374.686 697.104 375.912 695.967 377.474C694.831 379.001 694.245 380.759 694.21 382.748C694.138 384.381 694.458 385.819 695.168 387.062C695.914 388.305 696.979 389.406 698.364 390.365C699.785 391.288 701.489 392.105 703.478 392.815C705.467 393.525 707.704 394.147 710.19 394.679L719.565 396.81C724.962 397.982 729.721 399.544 733.84 401.498C737.995 403.451 741.475 405.777 744.281 408.476C747.121 411.174 749.27 414.282 750.726 417.797C752.182 421.313 752.928 425.255 752.963 429.623C752.928 436.512 751.188 442.424 747.743 447.36C744.298 452.297 739.344 456.079 732.881 458.706C726.454 461.334 718.695 462.648 709.604 462.648C700.477 462.648 692.523 461.281 685.74 458.547C678.957 455.812 673.684 451.657 669.92 446.082C666.156 440.507 664.22 433.458 664.114 424.935H689.362C689.575 428.451 690.516 431.38 692.185 433.724C693.854 436.068 696.145 437.843 699.057 439.051C702.004 440.258 705.413 440.862 709.284 440.862C712.835 440.862 715.854 440.383 718.339 439.424C720.861 438.465 722.796 437.133 724.146 435.429C725.495 433.724 726.188 431.771 726.223 429.569C726.188 427.51 725.548 425.752 724.305 424.296C723.063 422.804 721.145 421.526 718.553 420.461C715.996 419.36 712.729 418.348 708.751 417.424L697.352 414.761C687.906 412.595 680.467 409.097 675.033 404.267C669.6 399.402 666.901 392.833 666.937 384.559C666.901 377.811 668.712 371.899 672.37 366.821C676.028 361.743 681.088 357.783 687.551 354.942C694.014 352.101 701.383 350.681 709.657 350.681C718.109 350.681 725.442 352.119 731.656 354.995C737.906 357.836 742.754 361.831 746.198 366.981C749.643 372.13 751.401 378.096 751.472 384.878H726.223ZM766.28 461.263V352.172H811.344C819.511 352.172 826.56 353.646 832.491 356.593C838.457 359.505 843.055 363.696 846.287 369.164C849.518 374.598 851.134 381.043 851.134 388.5C851.134 396.064 849.483 402.492 846.18 407.783C842.878 413.039 838.19 417.052 832.118 419.821C826.045 422.556 818.854 423.923 810.545 423.923H782.047V403.149H805.644C809.621 403.149 812.942 402.634 815.605 401.604C818.304 400.539 820.346 398.941 821.731 396.81C823.116 394.644 823.808 391.874 823.808 388.5C823.808 385.127 823.116 382.339 821.731 380.137C820.346 377.9 818.304 376.231 815.605 375.13C812.906 373.994 809.586 373.426 805.644 373.426H792.647V461.263H766.28ZM827.697 411.405L854.863 461.263H826.099L799.465 411.405H827.697ZM865.596 461.263V352.172H941.662V373.586H891.963V395.958H937.773V417.424H891.963V439.85H941.662V461.263H865.596ZM998.498 461.263H958.174V352.172H998.444C1009.56 352.172 1019.13 354.356 1027.16 358.724C1035.22 363.057 1041.43 369.307 1045.8 377.474C1050.17 385.606 1052.35 395.336 1052.35 406.664C1052.35 418.028 1050.17 427.794 1045.8 435.961C1041.47 444.129 1035.27 450.397 1027.21 454.765C1019.15 459.097 1009.58 461.263 998.498 461.263ZM984.542 438.784H997.485C1003.59 438.784 1008.76 437.755 1012.99 435.695C1017.25 433.6 1020.46 430.208 1022.63 425.521C1024.83 420.798 1025.93 414.512 1025.93 406.664C1025.93 398.816 1024.83 392.566 1022.63 387.914C1020.43 383.227 1017.18 379.853 1012.88 377.794C1008.62 375.699 1003.36 374.651 997.113 374.651H984.542V438.784ZM1170.71 406.718C1170.71 418.721 1168.4 428.895 1163.79 437.24C1159.17 445.585 1152.92 451.924 1145.04 456.256C1137.19 460.588 1128.38 462.755 1118.61 462.755C1108.81 462.755 1099.99 460.571 1092.14 456.203C1084.29 451.835 1078.06 445.496 1073.44 437.186C1068.86 428.841 1066.57 418.685 1066.57 406.718C1066.57 394.715 1068.86 384.541 1073.44 376.196C1078.06 367.851 1084.29 361.512 1092.14 357.179C1099.99 352.847 1108.81 350.681 1118.61 350.681C1128.38 350.681 1137.19 352.847 1145.04 357.179C1152.92 361.512 1159.17 367.851 1163.79 376.196C1168.4 384.541 1170.71 394.715 1170.71 406.718ZM1143.76 406.718C1143.76 399.615 1142.74 393.614 1140.72 388.713C1138.73 383.813 1135.86 380.102 1132.09 377.581C1128.36 375.059 1123.87 373.799 1118.61 373.799C1113.39 373.799 1108.9 375.059 1105.14 377.581C1101.37 380.102 1098.48 383.813 1096.46 388.713C1094.47 393.614 1093.47 399.615 1093.47 406.718C1093.47 413.82 1094.47 419.821 1096.46 424.722C1098.48 429.623 1101.37 433.333 1105.14 435.855C1108.9 438.376 1113.39 439.637 1118.61 439.637C1123.87 439.637 1128.36 438.376 1132.09 435.855C1135.86 433.333 1138.73 429.623 1140.72 424.722C1142.74 419.821 1143.76 413.82 1143.76 406.718ZM1230.42 352.172H1256.42V427.598C1256.38 434.665 1254.69 440.844 1251.36 446.135C1248.02 451.391 1243.4 455.475 1237.51 458.387C1231.65 461.299 1224.86 462.755 1217.16 462.755C1210.34 462.755 1204.14 461.565 1198.57 459.186C1193.03 456.807 1188.61 453.113 1185.31 448.106C1182.04 443.099 1180.42 436.689 1180.46 428.877H1206.72C1206.82 431.682 1207.36 434.079 1208.32 436.068C1209.31 438.021 1210.68 439.495 1212.42 440.489C1214.16 441.483 1216.24 441.981 1218.65 441.981C1221.17 441.981 1223.3 441.448 1225.04 440.383C1226.78 439.282 1228.1 437.666 1228.98 435.535C1229.91 433.405 1230.39 430.759 1230.42 427.598V352.172ZM1272.97 461.263V352.172H1349.03V373.586H1299.34V395.958H1345.15V417.424H1299.34V439.85H1349.03V461.263H1272.97ZM1390.32 352.172L1414.71 432.073H1415.62L1440.01 352.172H1469.52L1432.72 461.263H1397.61L1360.81 352.172H1390.32ZM1507.64 352.172V461.263H1481.27V352.172H1507.64ZM1623.21 391.696H1596.58C1596.22 388.962 1595.5 386.494 1594.4 384.292C1593.3 382.091 1591.84 380.208 1590.03 378.646C1588.22 377.083 1586.07 375.894 1583.58 375.077C1581.13 374.225 1578.42 373.799 1575.43 373.799C1570.14 373.799 1565.58 375.095 1561.74 377.687C1557.94 380.28 1555.01 384.026 1552.95 388.927C1550.93 393.827 1549.92 399.757 1549.92 406.718C1549.92 413.962 1550.95 420.034 1553.01 424.935C1555.1 429.8 1558.03 433.476 1561.8 435.961C1565.6 438.412 1570.09 439.637 1575.27 439.637C1578.19 439.637 1580.83 439.264 1583.21 438.518C1585.62 437.772 1587.74 436.689 1589.55 435.269C1591.4 433.813 1592.9 432.055 1594.08 429.995C1595.28 427.9 1596.12 425.539 1596.58 422.911L1623.21 423.071C1622.75 427.9 1621.35 432.659 1619.01 437.346C1616.7 442.034 1613.52 446.313 1609.47 450.184C1605.42 454.019 1600.49 457.073 1594.66 459.346C1588.87 461.618 1582.23 462.755 1574.74 462.755C1564.87 462.755 1556.03 460.588 1548.21 456.256C1540.44 451.888 1534.29 445.532 1529.78 437.186C1525.27 428.841 1523.02 418.685 1523.02 406.718C1523.02 394.715 1525.31 384.541 1529.89 376.196C1534.47 367.851 1540.67 361.512 1548.48 357.179C1556.29 352.847 1565.05 350.681 1574.74 350.681C1581.35 350.681 1587.45 351.604 1593.06 353.451C1598.68 355.262 1603.61 357.925 1607.87 361.441C1612.13 364.921 1615.6 369.2 1618.26 374.278C1620.92 379.356 1622.57 385.162 1623.21 391.696Z" fill="#322E2E"/>
<path d="M153.972 418.482C114.18 366.424 93.2823 308.131 91.3587 256.2C89.4343 204.246 106.446 159.355 141.585 132.496C176.724 105.637 224.506 101.002 274.134 116.493C323.74 131.977 374.506 167.44 414.297 219.499C454.089 271.557 474.987 329.85 476.91 381.781C478.835 433.735 461.823 478.626 426.684 505.485C391.545 532.344 343.763 536.979 294.135 521.488C244.529 506.004 193.763 470.541 153.972 418.482Z" fill="#322E2E" stroke="#332E2E" stroke-width="15"/>
<path d="M572.875 328.811C530.06 435.169 424.106 490.196 337.59 455.37C251.074 420.543 212.795 307.455 255.609 201.097C298.423 94.7385 404.377 39.7115 490.893 74.5384C577.409 109.365 615.689 222.453 572.875 328.811Z" fill="#D9FFB6" stroke="#332E2E" stroke-width="15"/>
</svg>
